<mxfile host="app.diagrams.net" agent="Mozilla/5.0 (Windows NT 10.0; Win64; x64) AppleWebKit/537.36 (KHTML, like Gecko) Chrome/130.0.0.0 Safari/537.36" version="24.8.3">
  <diagram name="Страница — 1" id="9e4w7uSJNNXDaSGshjfS">
    <mxGraphModel grid="1" page="1" gridSize="10" guides="1" tooltips="1" connect="1" arrows="1" fold="1" pageScale="1" pageWidth="827" pageHeight="1169" math="0" shadow="0">
      <root>
        <mxCell id="0" />
        <mxCell id="1" parent="0" />
        <mxCell id="ujG_gm8crD2m7O-TbVVO-1" value="MLDev experiments web application" style="rounded=0;whiteSpace=wrap;html=1;verticalAlign=top;" vertex="1" parent="1">
          <mxGeometry x="254" y="130" width="446" height="760" as="geometry" />
        </mxCell>
        <mxCell id="ujG_gm8crD2m7O-TbVVO-76" style="rounded=0;orthogonalLoop=1;jettySize=auto;html=1;entryX=0;entryY=0.5;entryDx=0;entryDy=0;endArrow=none;endFill=0;" edge="1" parent="1" source="ujG_gm8crD2m7O-TbVVO-4" target="ujG_gm8crD2m7O-TbVVO-23">
          <mxGeometry relative="1" as="geometry" />
        </mxCell>
        <mxCell id="ujG_gm8crD2m7O-TbVVO-4" value="User" style="shape=umlActor;verticalLabelPosition=bottom;verticalAlign=top;html=1;outlineConnect=0;" vertex="1" parent="1">
          <mxGeometry x="80" y="650" width="30" height="60" as="geometry" />
        </mxCell>
        <mxCell id="ujG_gm8crD2m7O-TbVVO-8" value="Git Repository" style="shape=umlActor;verticalLabelPosition=bottom;verticalAlign=top;html=1;outlineConnect=0;" vertex="1" parent="1">
          <mxGeometry x="750" y="600" width="30" height="60" as="geometry" />
        </mxCell>
        <mxCell id="ujG_gm8crD2m7O-TbVVO-9" value="Open a git repository in&lt;div&gt;an editor&lt;/div&gt;" style="ellipse;whiteSpace=wrap;html=1;" vertex="1" parent="1">
          <mxGeometry x="414" y="160" width="120" height="80" as="geometry" />
        </mxCell>
        <mxCell id="ujG_gm8crD2m7O-TbVVO-23" value="CRUD experiment files" style="ellipse;whiteSpace=wrap;html=1;" vertex="1" parent="1">
          <mxGeometry x="340" y="370" width="120" height="80" as="geometry" />
        </mxCell>
        <mxCell id="ujG_gm8crD2m7O-TbVVO-77" style="rounded=0;orthogonalLoop=1;jettySize=auto;html=1;entryX=0;entryY=0.5;entryDx=0;entryDy=0;endArrow=none;endFill=0;" edge="1" parent="1" source="ujG_gm8crD2m7O-TbVVO-4" target="ujG_gm8crD2m7O-TbVVO-9">
          <mxGeometry relative="1" as="geometry">
            <mxPoint x="120" y="685" as="sourcePoint" />
            <mxPoint x="310" y="627" as="targetPoint" />
          </mxGeometry>
        </mxCell>
        <mxCell id="ujG_gm8crD2m7O-TbVVO-78" style="rounded=0;orthogonalLoop=1;jettySize=auto;html=1;entryX=0;entryY=0.5;entryDx=0;entryDy=0;endArrow=none;endFill=0;" edge="1" parent="1" source="ujG_gm8crD2m7O-TbVVO-4" target="JUNRNKC0To4SIZVRPb1i-9">
          <mxGeometry relative="1" as="geometry">
            <mxPoint x="120" y="669" as="sourcePoint" />
            <mxPoint x="294" y="740" as="targetPoint" />
          </mxGeometry>
        </mxCell>
        <mxCell id="ujG_gm8crD2m7O-TbVVO-79" style="rounded=0;orthogonalLoop=1;jettySize=auto;html=1;entryX=0;entryY=0.5;entryDx=0;entryDy=0;endArrow=none;endFill=0;" edge="1" parent="1" source="ujG_gm8crD2m7O-TbVVO-4" target="tT0REopkQmvVAQM1GDur-19">
          <mxGeometry relative="1" as="geometry">
            <mxPoint x="120" y="707" as="sourcePoint" />
            <mxPoint x="294" y="1090" as="targetPoint" />
          </mxGeometry>
        </mxCell>
        <mxCell id="ujG_gm8crD2m7O-TbVVO-118" style="rounded=0;orthogonalLoop=1;jettySize=auto;html=1;endArrow=none;endFill=0;exitX=1;exitY=0.5;exitDx=0;exitDy=0;" edge="1" parent="1" source="ujG_gm8crD2m7O-TbVVO-9" target="ujG_gm8crD2m7O-TbVVO-8">
          <mxGeometry relative="1" as="geometry">
            <mxPoint x="630" y="310" as="sourcePoint" />
            <mxPoint x="891" y="770" as="targetPoint" />
            <Array as="points">
              <mxPoint x="770" y="310" />
            </Array>
          </mxGeometry>
        </mxCell>
        <mxCell id="JUNRNKC0To4SIZVRPb1i-2" style="rounded=0;orthogonalLoop=1;jettySize=auto;html=1;entryX=0;entryY=0.5;entryDx=0;entryDy=0;endArrow=none;endFill=0;" edge="1" parent="1" source="ujG_gm8crD2m7O-TbVVO-4" target="tT0REopkQmvVAQM1GDur-4">
          <mxGeometry relative="1" as="geometry">
            <mxPoint x="120" y="675" as="sourcePoint" />
            <mxPoint x="340" y="665" as="targetPoint" />
          </mxGeometry>
        </mxCell>
        <mxCell id="JUNRNKC0To4SIZVRPb1i-3" value="CRUD files" style="ellipse;whiteSpace=wrap;html=1;" vertex="1" parent="1">
          <mxGeometry x="550" y="270" width="120" height="80" as="geometry" />
        </mxCell>
        <mxCell id="JUNRNKC0To4SIZVRPb1i-4" style="rounded=0;orthogonalLoop=1;jettySize=auto;html=1;dashed=1;endArrow=open;endFill=0;" edge="1" parent="1" source="ujG_gm8crD2m7O-TbVVO-23" target="JUNRNKC0To4SIZVRPb1i-3">
          <mxGeometry relative="1" as="geometry">
            <mxPoint x="437" y="526" as="sourcePoint" />
            <mxPoint x="750" y="390" as="targetPoint" />
          </mxGeometry>
        </mxCell>
        <mxCell id="JUNRNKC0To4SIZVRPb1i-5" value="&amp;lt;&amp;lt;extends&amp;gt;&amp;gt;" style="edgeLabel;html=1;align=center;verticalAlign=middle;resizable=0;points=[];" connectable="0" vertex="1" parent="JUNRNKC0To4SIZVRPb1i-4">
          <mxGeometry x="-0.279" y="2" relative="1" as="geometry">
            <mxPoint y="-17" as="offset" />
          </mxGeometry>
        </mxCell>
        <mxCell id="JUNRNKC0To4SIZVRPb1i-6" value="Pipeline autocomplete" style="ellipse;whiteSpace=wrap;html=1;" vertex="1" parent="1">
          <mxGeometry x="550" y="370" width="120" height="80" as="geometry" />
        </mxCell>
        <mxCell id="JUNRNKC0To4SIZVRPb1i-7" style="rounded=0;orthogonalLoop=1;jettySize=auto;html=1;dashed=1;endArrow=open;endFill=0;" edge="1" parent="1" source="ujG_gm8crD2m7O-TbVVO-23" target="JUNRNKC0To4SIZVRPb1i-6">
          <mxGeometry relative="1" as="geometry">
            <mxPoint x="459" y="397" as="sourcePoint" />
            <mxPoint x="571" y="343" as="targetPoint" />
            <Array as="points">
              <mxPoint x="510" y="410" />
            </Array>
          </mxGeometry>
        </mxCell>
        <mxCell id="JUNRNKC0To4SIZVRPb1i-8" value="&amp;lt;&amp;lt;include&amp;gt;&amp;gt;" style="edgeLabel;html=1;align=center;verticalAlign=middle;resizable=0;points=[];" connectable="0" vertex="1" parent="JUNRNKC0To4SIZVRPb1i-7">
          <mxGeometry x="-0.279" y="2" relative="1" as="geometry">
            <mxPoint x="28" y="-8" as="offset" />
          </mxGeometry>
        </mxCell>
        <mxCell id="tT0REopkQmvVAQM1GDur-1" value="Syntax highlighting" style="ellipse;whiteSpace=wrap;html=1;" vertex="1" parent="1">
          <mxGeometry x="550" y="470" width="120" height="80" as="geometry" />
        </mxCell>
        <mxCell id="tT0REopkQmvVAQM1GDur-2" style="rounded=0;orthogonalLoop=1;jettySize=auto;html=1;dashed=1;endArrow=open;endFill=0;exitX=1;exitY=1;exitDx=0;exitDy=0;entryX=0;entryY=0.5;entryDx=0;entryDy=0;" edge="1" parent="1" source="ujG_gm8crD2m7O-TbVVO-23" target="tT0REopkQmvVAQM1GDur-1">
          <mxGeometry relative="1" as="geometry">
            <mxPoint x="470" y="420" as="sourcePoint" />
            <mxPoint x="560" y="420" as="targetPoint" />
            <Array as="points">
              <mxPoint x="490" y="500" />
            </Array>
          </mxGeometry>
        </mxCell>
        <mxCell id="tT0REopkQmvVAQM1GDur-3" value="&amp;lt;&amp;lt;include&amp;gt;&amp;gt;" style="edgeLabel;html=1;align=center;verticalAlign=middle;resizable=0;points=[];" connectable="0" vertex="1" parent="tT0REopkQmvVAQM1GDur-2">
          <mxGeometry x="-0.279" y="2" relative="1" as="geometry">
            <mxPoint x="28" y="-8" as="offset" />
          </mxGeometry>
        </mxCell>
        <mxCell id="tT0REopkQmvVAQM1GDur-4" value="Execution of git operations" style="ellipse;whiteSpace=wrap;html=1;" vertex="1" parent="1">
          <mxGeometry x="330" y="570" width="120" height="80" as="geometry" />
        </mxCell>
        <mxCell id="JUNRNKC0To4SIZVRPb1i-9" value="Pipeline graph visualization" style="ellipse;whiteSpace=wrap;html=1;" vertex="1" parent="1">
          <mxGeometry x="330" y="680" width="120" height="80" as="geometry" />
        </mxCell>
        <mxCell id="tT0REopkQmvVAQM1GDur-10" style="rounded=0;orthogonalLoop=1;jettySize=auto;html=1;entryX=0.5;entryY=0.5;entryDx=0;entryDy=0;endArrow=none;endFill=0;entryPerimeter=0;exitX=1;exitY=0.5;exitDx=0;exitDy=0;" edge="1" parent="1" source="tT0REopkQmvVAQM1GDur-4" target="ujG_gm8crD2m7O-TbVVO-8">
          <mxGeometry relative="1" as="geometry">
            <mxPoint x="534" y="740" as="sourcePoint" />
            <mxPoint x="754" y="860" as="targetPoint" />
          </mxGeometry>
        </mxCell>
        <mxCell id="tT0REopkQmvVAQM1GDur-19" value="Build local" style="ellipse;whiteSpace=wrap;html=1;" vertex="1" parent="1">
          <mxGeometry x="330" y="780" width="120" height="80" as="geometry" />
        </mxCell>
        <mxCell id="JUNRNKC0To4SIZVRPb1i-11" value="ML Dev" style="shape=umlActor;verticalLabelPosition=bottom;verticalAlign=top;html=1;outlineConnect=0;" vertex="1" parent="1">
          <mxGeometry x="750" y="730" width="30" height="60" as="geometry" />
        </mxCell>
        <mxCell id="JUNRNKC0To4SIZVRPb1i-13" style="rounded=0;orthogonalLoop=1;jettySize=auto;html=1;endArrow=none;endFill=0;" edge="1" parent="1" source="tT0REopkQmvVAQM1GDur-19" target="JUNRNKC0To4SIZVRPb1i-11">
          <mxGeometry relative="1" as="geometry">
            <mxPoint x="460" y="620" as="sourcePoint" />
            <mxPoint x="775" y="640" as="targetPoint" />
          </mxGeometry>
        </mxCell>
      </root>
    </mxGraphModel>
  </diagram>
</mxfile>
